<?xml version="1.0" encoding="utf-8"?>
<!-- Generator: Adobe Illustrator 21.0.0, SVG Export Plug-In . SVG Version: 6.00 Build 0)  -->
<svg version="1.1" id="Layer_1" xmlns="http://www.w3.org/2000/svg" xmlns:xlink="http://www.w3.org/1999/xlink" x="0px" y="0px"
	 viewBox="0 0 867 204.8" style="enable-background:new 0 0 867 204.8;" xml:space="preserve">
<style type="text/css">
	.st0{fill:#501331;}
	.st1{fill:#57BD83;}
	.st2{fill:#71597D;}
	.st3{fill:#6C2975;}
	.st4{fill:#03B192;}
	.st5{fill:#92B9B8;}
	.st6{fill:#BA3736;}
	.st7{fill:#75455D;}
</style>
<g>
	<path class="st0" d="M216.3,142.8c-6.2,0-12.5,0.1-18.7,0c-2.8,0-3.4,0.6-2.5,3.4c3.3,10.6-1.8,20.5-11.4,22.9
		c-5.1,1.3-9.2-0.6-12.3-4.4c-4.5-5.7-5.2-12.1-2.1-18.6c1.4-2.8,0.5-3.6-2.2-3.2c-13.9,1.8-25.5-10.2-29.1-22.6
		c-5.1-17.5-11-34.7-16.5-52.1c-3.5-10.9-7.1-21.8-10.4-32.8c-0.9-3-2.4-4.3-5.6-4.2c-5.9,0.2-11.7,0-17.6,0c-3.1,0-5.5-0.9-5.9-4.4
		c-0.3-2.8,2.1-5.2,5.6-5.3c8.1-0.2,16.2-0.1,24.4,0c3.6,0,5.7,2.3,6.7,5.5c5.2,16.3,10.4,32.6,15.6,48.9c4.7,14.6,9.3,29.3,14,43.9
		c2.9,8.9,9.1,13.2,18.5,13.2c33.2,0,66.5,0,99.7,0c1.4,0,2.8-0.1,4.1,0.1c2.6,0.3,4,1.9,4.2,4.5c0.1,2.6-1.2,4.4-3.7,4.9
		c-1.8,0.4-3.7,0.4-5.6,0.3c-2.4-0.1-3,0.6-2.1,3.1c2.8,7.5,0.8,15-4.7,19.7c-5.2,4.4-10.5,5.1-15.5,2c-5.4-3.3-8.5-10.4-7.1-16.5
		c0.4-1.9,0.9-3.9,1.8-5.7c1.1-2.2,0.2-2.6-1.8-2.6C229.6,142.8,222.9,142.8,216.3,142.8z"/>
	<path class="st1" d="M239.7,42.1c12.7,0,25.5,0,38.2,0c1.3,0,3.2-0.5,3.6,1.1c0.4,1.6-1.4,2.1-2.5,2.8c-31.5,20-63.1,40-94.6,60
		c-5.3,3.3-10.5,6.8-15.7,10.1c-0.8,0.5-1.7,1.6-2.6,0.9c-1.1-0.8,0-1.8,0.4-2.7c8.1-18.9,16.2-37.9,24.3-56.8
		c1.7-3.9,3.5-7.7,5-11.7c1.1-2.8,2.9-3.7,5.7-3.7c12.7,0.1,25.5,0,38.2,0C239.7,42.2,239.7,42.2,239.7,42.1z"/>
	<path class="st2" d="M274.6,55.5c-2.8,3.6-5.6,7.1-8.5,10.7c-12.3,15.1-24.5,30.2-36.8,45.4c-1,1.3-2.3,2.3-3.1,3.8
		c-3.8,7.2-9.7,8.6-17.4,8.3c-12.5-0.6-25-0.1-37.5-0.2c-1.3,0-3.3,0.7-3.7-0.8c-0.5-1.7,1.7-2.2,2.8-2.9
		c22.1-13.9,44.2-27.8,66.3-41.7c11.1-7,22.1-14.1,33.1-21.2c1.2-0.8,2.5-1.5,3.8-2.2C274,54.9,274.3,55.2,274.6,55.5z"/>
	<path class="st0" d="M329.9,45.2c3.2,0,6.5,0,9.7,0c1,0,2.3-0.2,2.4,1.1c0.1,1.1-1.1,1.4-1.9,1.5c-3.9,0.4-4.7,3-4.7,6.4
		c0.1,12.4,0,24.7,0.1,37.1c0,6.7,1.2,7.8,7.9,8c1.6,0,3.3-0.1,4.9,0c3.7,0.3,6.3-1.2,7.4-4.9c0.3-1,0.7-2.4,2.1-2.2
		c1.6,0.3,1.5,1.8,1.4,3c-0.1,1.2-0.5,2.5-0.6,3.7c-0.1,1-0.8,2.4,0.6,3c1.2,0.5,2.2-0.2,3.1-0.9c1.4-1.3,2.3-3,3-4.7
		c5.5-12.7,11-25.4,16.6-38.1c0.3-0.8,0.7-1.6,1.1-2.4c0.6-1.3,1.2-2.6,2.8-2.7c1.9-0.1,2.5,1.3,3.1,2.7c3.7,8.5,7.3,17,11,25.5
		c2.1,4.9,4.3,9.9,6.4,14.8c1.3,3.1,3.2,5.7,6.8,6.3c0.7,0.1,1.6,0.3,1.6,1.2c-0.1,0.9-1,1-1.7,1.2c-5.1,0.8-10.2,0.4-15.3-0.3
		c-1-0.1-1.8-0.6-1.3-1.7c0.8-1.9-0.1-3.4-0.9-5c-1.4-2.9-1.2-7.3-4.2-8.5c-4.2-1.6-9.1-0.6-13.7-0.4c-1.3,0-1.9,1-2.4,2.1
		c-1,2.4-2.1,4.8-3,7.3c-0.7,1.7-0.7,3.2,1.4,4c0.8,0.3,2,0.3,1.8,1.5c-0.3,1.4-1.7,1.5-2.7,1.3c-3.9-0.7-7.7-0.1-11.6,0.1
		c-11.5,0.6-22.9-0.3-34.4-0.5c-2.2,0-4.5,0.2-6.7,0.2c-0.7,0-1.6-0.2-1.6-1.2c0-0.7,0.7-1,1.3-1.1c4.2-0.7,4.4-4,4.5-7.1
		c0.2-6.2,0.2-12.5,0.2-18.7c0-7.4-0.1-14.7,0-22.1c0-3.4-0.5-6.3-4.7-6.8c-0.8-0.1-2-0.4-1.8-1.5c0.1-1.1,1.3-1,2.1-1.1
		C323.2,45.1,326.5,45.2,329.9,45.2C329.9,45.2,329.9,45.2,329.9,45.2z M384.2,69.2c-2.7,4.4-3.7,8.3-5.2,12.1
		c-0.3,0.7-0.3,1.7,0.6,1.8c2.8,0.4,5.7,0.5,8.5,0c1.1-0.2,0.9-1.4,0.5-2.2C387.4,77.3,386,73.7,384.2,69.2z"/>
	<path class="st0" d="M802.7,104.6c-9.6,1.3-20.2-0.5-30.8,0.4c-0.9,0.1-1.7,0-2.6-0.1c-0.7-0.1-1.6-0.3-1.8-1.2
		c-0.2-1,0.7-1.2,1.4-1.4c3-0.6,3.6-2.9,3.6-5.4c0-11.9,0-23.7,0-35.6c0-2.5-0.6-4.5-3.5-4.9c-0.7-0.1-1.7-0.3-1.7-1.2
		c0-1.1,1.1-1.4,1.9-1.3c5.7,0.5,11.4,0.2,17.2,0c0.7,0,1.7,0.2,1.9,1c0.3,1.3-0.9,1.4-1.6,1.6c-2.9,0.8-3.4,2.9-3.4,5.5
		c0,10.9-0.1,21.7,0.1,32.6c0,3.1-0.8,6.8,3.9,7.7c6.2,1.2,9.8-0.2,11.9-4.9c4.8-10.9,9.4-21.8,14.1-32.7c1.3-3,2.6-5.9,4-8.9
		c0.6-1.3,1.2-2.6,2.8-2.7c1.8-0.1,2.6,1.4,3.2,2.7c3.7,8.4,7.3,16.7,10.9,25.1c2.2,5,4.3,10.1,6.6,15.1c1.3,3,3.1,5.8,6.7,6.4
		c0.6,0.1,1.4,0.3,1.4,1c0.1,1-0.8,1.1-1.5,1.3c-5.1,1.2-10.2-0.3-15.3-0.3c-0.8,0-1.4-0.6-1.3-1.5c0.4-4.2-2.2-7.6-3.5-11.3
		c-0.8-2.3-2.3-3.1-4.6-2.9c-1,0.1-2,0-3,0c-10.4,0-10.3,0-13.4,9.7c-0.6,1.8-0.5,3.2,1.6,3.8c0.8,0.2,1.9,0.4,1.5,1.6
		c-0.3,0.9-1.4,1.1-2.2,1C806.1,105,804.9,104.8,802.7,104.6z M818.9,70c-0.3,0-0.7,0-1,0c-0.8,1.9-1.5,3.9-2.3,5.8
		c-3.7,8.8-4,7.5,5.4,7.6c0.4,0,0.7,0,1.1,0c1.4,0,1.8-0.7,1.3-2C821.9,77.6,820.4,73.8,818.9,70z"/>
	<path class="st3" d="M286.4,51.6c-0.5,3.3-0.8,6.4-1.4,9.4c-2.6,14-5.4,27.9-7.8,41.9c-0.7,3.9-2.1,6-6.1,7.2
		c-12.4,3.7-24.6,8.1-37,12c-2.5,0.8-6,2.8-7.7,0.5c-1.4-1.9,2.2-4,3.6-5.8c16-19.9,32.2-39.7,48.3-59.6c1.7-2.1,3.5-4.2,5.3-6.3
		c0.5-0.6,1-1.7,2.1-1.1C286.5,50.2,286.3,51.1,286.4,51.6z"/>
	<path class="st4" d="M190.6,42.5c1.9,0.6,1,1.8,0.6,2.7c-2.6,6.3-5.3,12.6-8,19c-7.3,17.2-14.6,34.5-21.9,51.7
		c-0.5,1.1-0.7,2.8-2,2.9c-1.9,0.1-1.6-1.9-2-3.1c-4.1-12-8.1-24.1-12.1-36.2c-1-2.9-0.9-5.1,2-7.1c13.5-9.2,26.9-18.6,40.3-27.8
		C188.4,43.8,189.5,43.2,190.6,42.5z"/>
	<path class="st0" d="M726.8,105.9c-7,0-12.8-1.7-18.7-1.3c-2,0.1-4,0.3-5.9,0.3c-0.7,0-1.5-0.4-1.5-1.3c0-0.7,0.6-1.1,1.3-1.2
		c3.1-0.5,3.4-2.8,3.4-5.3c0-11.7-0.1-23.4,0-35.1c0-3-0.6-5.1-4-5.5c-0.7-0.1-1.7-0.2-1.8-1.1c-0.1-1.2,1-1.2,1.9-1.4
		c2.5-0.7,4.9,0.3,7.4,0.2c7.7-0.1,15.4-0.6,23.1-0.1c10.6,0.6,20.1,6.5,23.4,15.3c3.8,10,1.1,21.8-6.7,28.9
		C742.1,104.1,733.9,105.2,726.8,105.9z M716.6,80.3c0.3,3.6-0.5,9.7,0.4,15.8c0.3,2.1,1.2,3.5,3.4,3.9c5.8,1.2,11.4,0.8,16.8-1.9
		c6.8-3.4,7.7-9.9,8.3-16.5c0.8-8.4-3.7-16.7-10.9-20.1c-4.5-2.1-9.2-2.9-14.1-2.8c-2.7,0.1-3.9,1.2-3.8,3.8
		C716.6,67.6,716.6,72.8,716.6,80.3z"/>
	<path class="st0" d="M534.3,91.6c0,1.7,0,3.5,0,5.2c-0.1,3,0.9,5.1,4.3,5.5c0.7,0.1,1.7,0.3,1.7,1.1c0.1,1.1-1,1.2-1.9,1.4
		c-0.6,0.1-1.2,0.3-1.9,0.2c-5-0.5-9.9-0.7-14.9-0.1c-1.1,0.1-2.5,0-2.9-1.2c-0.4-1.4,1.2-1.4,2-1.7c1.9-0.7,2.2-2.1,2.3-3.9
		c0.6-12.3,1.3-24.7,0.1-37c-0.3-2.8-0.9-4.6-3.9-4.9c-0.7-0.1-1.6-0.3-1.6-1.2c0-0.9,0.9-1.1,1.7-1.2c0.7-0.2,1.5-0.3,2.2-0.2
		c4.6,0.6,9.2,0.6,13.8,0.1c1.2-0.1,2.9-0.2,3.4,1.1c0.6,1.6-1.3,1.5-2.1,1.9c-1.5,0.8-2.1,2.1-2.2,3.7c-0.1,3.7-0.1,7.5-0.1,11.2
		c0,0.6,0.2,1.4,0.5,1.7c0.8,0.5,1.3-0.4,1.8-0.9c3.8-4,8-7.5,11.4-11.9c1.1-1.4,2.3-2.6,1.4-4.7c-0.7-1.6,0.8-2,1.9-2
		c4.5,0,9,0.1,13.5,0.3c0.7,0,1.6,0.1,1.7,1.1c0.1,0.7-0.7,1-1.3,1.1c-7.7,1.7-12.4,7.8-17.6,12.8c-7.7,7.4-7.4,5.5-0.3,12.9
		c3.6,3.8,7.1,7.7,10.8,11.4c3.8,3.7,7.6,7.7,13.2,8.8c0.7,0.1,1.7,0.4,1.7,1.2c0,1.1-1.1,1.3-1.9,1.4c-7.7,0.6-15.4,0.8-21.2-5.7
		c-4.3-4.8-8.6-9.7-12.9-14.6c-0.6-0.7-1.1-2-2.3-1.5c-0.9,0.4-0.5,1.6-0.5,2.4C534.2,87.6,534.3,89.6,534.3,91.6
		C534.3,91.6,534.3,91.6,534.3,91.6z"/>
	<path class="st0" d="M618.3,75.4c0,6.9,0.1,13.7,0,20.6c-0.1,3.7,1.1,6,5.1,6.3c0.9,0.1,2.4,0,2.3,1.3c0,1.5-1.6,1.5-2.6,1.5
		c-3.6,0-7.2-0.3-10.8-0.4c-3,0-6,0.3-9,0.3c-0.9,0-2.2-0.1-2.3-1.4c-0.1-1.1,1.1-1.2,1.9-1.4c2.5-0.6,3.4-2.3,3.4-4.7
		c0-15.1,0-30.2,0-45.4c0-3-1.6-3.9-4.1-4.2c-1-0.2-2.6-0.2-2.5-1.7c0.1-1.2,1.5-1,2.5-1c8.7,0,17.5-0.3,26.2,0.2
		c6.1,0.4,11.5,3,13.7,9.4c2.3,6.5,0.6,12.4-3.7,17.4c-3.8,4.4-8.9,6.8-14.9,6.7c-1.2,0-2.9,0.2-3.1-1.4c-0.2-1.6,1.5-1.7,2.7-2
		c5.8-1.5,9.1-5.7,9.2-11.6c0.1-6.4-3.5-12-8.7-13.6c-4.1-1.3-5.4-0.4-5.4,3.8C618.2,61.1,618.2,68.3,618.3,75.4
		C618.3,75.4,618.3,75.4,618.3,75.4z"/>
	<path class="st0" d="M506.7,105.2c-1,0-2,0.1-3,0c-2-0.2-4-0.2-5.9-0.7c-2.8-0.8-0.7-3.5-1.6-5.2c-1.4-2.5-2.1-5.3-3.1-8
		c-0.6-1.8-1.9-2.5-3.7-2.5c-1.9,0-3.7,0-5.6,0c-8.3,0-9.9,1.3-11.6,9.6c-0.4,1.9-0.4,3.5,2,4.1c0.7,0.2,1.6,0.4,1.3,1.4
		c-0.2,0.8-1.1,1.1-1.9,1c-4.9-0.1-9.7-0.2-14.6-0.3c-0.6,0-1.3-0.3-1.4-1c-0.1-0.7,0.6-1.1,1.2-1.2c4.2-0.8,5.7-4,7.2-7.4
		c5.4-12.6,10.8-25.2,16.2-37.8c0.7-1.7,1.1-3.9,3.4-4c2.5-0.1,3.2,2.1,4,3.9c5.4,12.6,10.8,25.2,16.2,37.8c1.5,3.5,3,7,7.4,7.6
		c0.6,0.1,1.3,0.4,1.3,1.1c0,0.9-0.9,1.2-1.6,1.2c-2.1,0.2-4.2,0.3-6.3,0.5C506.8,105.3,506.8,105.2,506.7,105.2z M483.9,69.5
		c-1.7,3.9-3.1,7.2-4.5,10.5c-0.6,1.5-1,3.3,1.3,3.2c2.8-0.1,5.9,1.5,8.3-1c0.2-0.2,0-0.8-0.2-1.1C487.3,77.5,486.5,73.5,483.9,69.5
		z"/>
	<path class="st0" d="M434.5,80.2c0,5.6,0,11.2,0,16.9c0,3,0.9,5.1,4.3,5.3c0.8,0,2,0.1,1.9,1.3c-0.1,1.1-1.2,1.2-2,1.3
		c-2.8,0.5-5.5-0.5-8.2-0.4c-3.1,0.1-6.2,0.4-9.3,0.4c-1,0-2.2-0.1-2.5-1.3c-0.3-1.2,0.9-1.3,1.7-1.5c2.2-0.7,2.8-2.3,2.8-4.3
		c0-12.5,0-25,0.1-37.5c0-2.6-1.4-3.5-3.6-4c-0.9-0.2-2.4,0-2.1-1.5c0.2-1.1,1.5-1.3,2.5-1.3c2.5,0,5,0.2,7.5,0.4
		c5.6,0.4,11.2-0.8,16.8-0.1c5.1,0.7,9.7,2.3,11.8,7.3c2.3,5.3,1.2,10.5-2.6,15c-3.8,4.5-8.8,6.4-14.6,6.4c-1.1,0-2.6,0.1-2.8-1.3
		c-0.2-1.6,1.4-1.5,2.4-1.7c3.9-1,7-3.1,7.8-7.2c0.9-4.5,0.5-9-3.7-12.2c-2-1.5-4.3-2.3-6.7-1.4c-2.2,0.9-1.4,3.2-1.4,5
		C434.4,69.4,434.4,74.8,434.5,80.2C434.5,80.2,434.5,80.2,434.5,80.2z"/>
	<path class="st0" d="M658,79.8c0-5.9-0.1-11.7,0.1-17.6c0.1-3.2-0.5-5.4-4.2-5.8c-0.7-0.1-1.6-0.3-1.7-1.2c0-0.9,0.9-1,1.6-1.2
		c2-0.6,4,0.1,5.9,0.1c8.2-0.1,16.5,0.6,24.7-0.4c2-0.3,3.2,0.3,3,2.6c-0.2,2.1-0.5,4.2-0.8,6.3c-0.1,0.8-0.5,1.5-1.3,1.6
		c-0.9,0.2-1.2-0.6-1.6-1.3c-1.5-2.5-10.3-5-12.9-3.7c-1.4,0.6-1.5,1.9-1.5,3.1c0,3.1,0,6.2,0,9.4c0,2.6,1.2,3.6,3.7,3.6
		c3.5,0,7,0.1,10.4-1c2.5-0.8,3.2,0.3,3,2.6c-0.2,2.2-0.4,4.5-0.6,6.7c-0.1,0.8-0.4,1.5-1.2,1.7c-0.9,0.2-1.2-0.5-1.6-1.2
		c-1.5-2.6-9.5-5-12.1-3.8c-1.1,0.5-1.3,1.4-1.3,2.5c0,4.2-0.1,8.5,0.1,12.7c0.1,2.4,1.5,4,3.9,4.3c5,0.5,10.4,2,13.1-4.5
		c0.2-0.6,0.8-1,1.5-0.9c0.9,0.1,1.1,0.8,1.3,1.6c1.4,5.2-1.8,9.4-7.1,9.6c-8.6,0.2-17.2-1.6-25.8-0.3c-1.1,0.2-2.5,0.1-2.8-1.2
		c-0.4-1.4,1.1-1.4,2-1.7c2.3-0.7,2.5-2.5,2.5-4.4C658,91.7,658,85.8,658,79.8z"/>
	<path class="st5" d="M170.9,42.3c2.1,0,4.2,0,6.4,0c0.9,0,2.2-0.4,2.7,0.7c0.5,1.2-0.8,1.7-1.6,2.2c-7.9,5.5-15.8,11-23.6,16.5
		c-3.2,2.2-6.4,4.4-9.5,6.7c-1.8,1.3-3.1,1.4-3.8-1.1c-1.4-4.5-3.1-9-4.3-13.6c-1.6-6.3,1.9-10.8,8.3-10.7
		C153.9,43.1,162.4,42.6,170.9,42.3z"/>
	<path class="st6" d="M628.1,136.2c0.8-2.8,1.7-5.7,2.5-8.5c0.6-2.2,2.1-3.6,4.2-4.5c3.8-1.6,5.9-0.3,5.9,3.7c0.1,6.2,0,12.5,0,18.7
		c0,2-0.3,3.9-3,3.8c-2.6-0.1-2.3-2.2-2.3-3.9c0-4.7,0-9.4-0.8-14.2c-1.2,4.1-2.3,8.2-3.5,12.4c-0.5,1.7-0.8,3.5-3.2,3.5
		c-2.5,0-3.1-1.7-3.6-3.6c-1-3.6-2-7.1-3.8-10.6c0,3.4,0,6.8,0,10.2c0,1.2,0,2.5-0.1,3.7c-0.1,1.6-1.1,2.5-2.7,2.5
		c-1.8,0-2.5-1-2.5-2.6c0-7.1,0-14.2,0-21.4c0-2.3,1.4-3.1,3.5-2.8c3.3,0.5,5.4,2.5,6.4,5.6c0.9,2.6,1.6,5.2,2.3,7.9
		C627.6,136.2,627.8,136.2,628.1,136.2z"/>
	<path class="st6" d="M468.3,132.4c-1,3.6-2,7.2-3,10.8c-0.5,1.9-0.9,4-3.6,4.1c-2.8,0.1-3.1-2.3-3.6-4.1c-1.1-3.7-2.1-7.4-3.4-11.1
		c-1.1,3.2-0.5,6.4-0.7,9.6c-0.1,1.6,0,3.2,0,4.9c0,1.7-0.5,3-2.6,2.9c-1.9,0-2.7-1.2-2.7-2.9c-0.1-4.7-0.1-9.5-0.1-14.2
		c0-1.7,0-3.5,0-5.2c0.1-4.3,2.6-5.6,6.4-3.6c3.5,1.9,4.1,5.5,5.1,8.8c0.4,1.3,0.7,2.6,1.1,4.6c1.8-3,2.1-5.8,2.9-8.5
		c0.9-3,2.9-4.9,6-5.6c2.4-0.5,3.9,0.3,3.9,3c0,6.9,0,13.7,0,20.6c0,1.6-0.4,3-2.4,3c-2.1,0-2.8-1.4-2.8-3.2c0-4.6,0-9.2,0-13.8
		C468.8,132.4,468.6,132.4,468.3,132.4z"/>
	<path class="st7" d="M32.2,150c1.7-1.1,3-1.1,4.4-1.2c8.2-0.3,16.5-0.7,24.7-0.8c22.7-0.3,45.4-0.5,68.2-0.9c6-0.1,12-0.6,18-0.6
		c2.1,0,4.2,0.2,4.1,3c0,2.9-2.1,3-4.2,2.9c-18.8-1.3-37.7,0-56.5-0.8C71.4,150.7,52.1,151.1,32.2,150z"/>
	<path class="st0" d="M42.2,164.1c6.2-0.4,11.5-0.7,16.8-1c18.1-1.1,36.2-0.6,54.3-0.9c11.5-0.2,22.9-0.5,34.4-0.7
		c1.2,0,2.5,0,3.7,0.3c1.5,0.4,2.2,1.7,2.1,3.2c0,1.8-1.5,1.8-2.7,1.8c-6.6,0-13.2-0.1-19.8-0.2c-1.4,0-2.7-0.2-4.1-0.2
		c-26-0.1-51.9-1.2-77.8-1C47,165.2,45,165.4,42.2,164.1z"/>
	<path class="st0" d="M59,157.5c2.9-1.6,5.8-2,8.7-2c8.5,0,17,0,25.5-0.1c17.5-0.4,34.9-0.9,52.4-1.3c1.2,0,2.5,0,3.7,0.1
		c2,0.2,2.8,1.6,2.8,3.4c0,1.8-1.4,2.2-2.8,2.3c-1,0.1-2,0.1-3,0.1c-26.7-0.6-53.4-1.7-80.2-1.6C63.8,158.4,61.4,157.8,59,157.5z"/>
	<path class="st6" d="M710.4,136.2c0,3.4,0,6.7,0,10.1c0,1.8-0.8,3.2-2.9,3.1c-2.1,0-2.4-1.5-2.4-3.1c0-1.1,0-2.2,0-3.4
		c-0.1-2.2,0.6-4.7-3.1-4.7c-4,0-5.6,1.3-5.8,5c0,1.2,0,2.5-0.1,3.7c-0.1,1.4-0.9,2.3-2.4,2.4c-1.5,0-2.5-0.8-2.5-2.2
		c-0.2-6.1-1-12.3,0.7-18.2c1.1-3.7,3.8-6.2,7.9-6.4c12.6-0.4,10.4-0.3,10.6,9.5C710.5,133.5,710.5,134.9,710.4,136.2
		C710.4,136.2,710.4,136.2,710.4,136.2z M700.1,133.8c2.6,0,5.5,1,5.1-3.3c-0.2-2.3-0.8-3.5-3.3-3.4c-2.9,0.1-5.6,2.4-5.5,5
		C696.5,135.3,698.9,133.4,700.1,133.8z"/>
	<path class="st6" d="M568.7,136c0,3.4,0,6.7,0,10.1c0,1.8-0.5,3.3-2.7,3.4c-2.3,0.1-2.6-1.5-2.6-3.3c0-1.2,0-2.5,0-3.7
		c0.1-2.3-0.1-4.4-3.3-4.1c-2.7,0.2-5.4,0.3-5.6,4c-0.1,1.6,0,3.2-0.2,4.9c-0.1,1.4-1,2.3-2.5,2.2c-1.5,0-2.5-0.9-2.4-2.3
		c0.3-5.8-0.9-11.7,0.5-17.5c1-4,4.2-6.9,8.3-7c12.5-0.3,10.3-0.3,10.4,9.6C568.7,133.5,568.7,134.8,568.7,136
		C568.7,136,568.7,136,568.7,136z M558.3,133.8c2.8,0.1,5.5,0.9,5.1-3.4c-0.2-2.3-0.9-3.4-3.4-3.3c-2.9,0.2-5.6,2.5-5.4,5.1
		C554.8,135.3,557.3,133.4,558.3,133.8z"/>
	<path class="st6" d="M520.8,136.5c0,3.2,0,6.5,0,9.7c0,1.8-0.3,3.4-2.6,3.3c-2.2-0.1-2.5-1.6-2.6-3.4c0-1.2-0.1-2.5,0-3.7
		c0-2.1-0.1-4.1-3.1-4c-2.7,0.1-5.1,0.5-5.3,3.9c-0.1,1.6,0,3.2-0.2,4.9c-0.1,1.6-1.1,2.4-2.8,2.3c-1.6-0.1-2.2-1.1-2.2-2.5
		c0-5.4-0.3-10.8,0.3-16.1c0.5-5.3,4.3-8.2,9.8-8.3c8.7-0.3,8.7-0.3,8.7,8.3C520.8,132.7,520.8,134.6,520.8,136.5
		C520.8,136.5,520.8,136.5,520.8,136.5z M510.5,133.9c4.5-0.2,5.1-0.7,5-3.8c0-2.3-1.1-3.1-3.3-3c-2.8,0.2-5.2,2.6-5,5
		C507.5,134.7,509.3,133.8,510.5,133.9z"/>
	<path class="st6" d="M572.5,135.9c0-3.2,0-6.5,0-9.7c0-2.3,1.1-3.3,3.4-3.6c5.3-0.5,10.1,0.4,13.3,4.9c3.4,4.6,3.4,9.8,1.5,15
		c-2.2,5.9-10.7,9.3-16.4,6.9c-1.6-0.7-1.8-2-1.8-3.4C572.5,142.6,572.5,139.2,572.5,135.9z M586,135.9c0.3-3.7-0.9-6.6-4.5-8.1
		c-2.4-1-3.6-0.4-3.6,2.3c0,4,0,8,0,12c0,3,1.6,3.4,3.9,2.3C585.4,142.7,586.3,139.5,586,135.9z"/>
	<path class="st6" d="M675.2,149.6c-6.7,0-6.7,0-6.7-5.9c0-5.5,0.1-11,0-16.5c-0.1-3.5,1.4-4.6,4.7-4.7c7.4-0.2,12.1,2.9,13.9,9.3
		c1.9,6.8-0.6,13.6-5.9,16.6C678.9,149.6,676.7,149.6,675.2,149.6z M673.8,135.8C673.8,135.8,673.8,135.8,673.8,135.8c0,2-0.1,4,0,6
		c0.2,3,1.3,3.7,4.1,2.4c3.5-1.7,4.2-5,4-8.5c-0.1-3.6-1.6-6.5-5.1-8c-1.8-0.8-2.9-0.1-3,1.9C673.7,131.6,673.8,133.7,673.8,135.8z"
		/>
	<path class="st6" d="M733.8,136.2c0,3.4,0,6.7,0,10.1c0,1.6-0.3,3.1-2.4,3.1c-2.1-0.1-2.3-1.6-2.3-3.2c0-1.1-0.2-2.3,0-3.4
		c0.5-3.7-1.3-4.6-4.8-4.6c-3.5,0-5.2,1-4.7,4.7c0.1,0.9,0,1.7,0,2.6c-0.1,1.7,0.3,3.8-2.3,3.9c-2.6,0.2-3-1.7-3-3.7
		c0-6.4,0-12.7,0-19.1c0-2,0.3-3.9,3-3.8c2.6,0.1,2.3,2.1,2.4,3.9c0,0.6,0,1.2,0,1.9c0,4.9,3.1,6.8,7.8,5.1c1.3-0.5,1.6-1.5,1.6-2.7
		c0.1-1.9,0-3.7,0.1-5.6c0-1.4,0.6-2.5,2.2-2.5c1.7-0.1,2.5,1,2.5,2.6C733.9,129,733.9,132.6,733.8,136.2
		C733.9,136.2,733.9,136.2,733.8,136.2z"/>
	<path class="st6" d="M664,134.1c0,2.7,0.2,5.5,0,8.2c-0.5,5.1-3.4,7.3-9.4,7.3c-6,0-9.6-2.4-9.9-7.3c-0.3-5.5-0.1-11-0.1-16.5
		c0-1.9,0.9-3.1,2.9-3c2.1,0.1,2.3,1.6,2.3,3.2c0,4.6,0.1,9.2,0,13.9c-0.1,3.2,1.4,5,4.6,5.1c3.4,0.1,4.5-2,4.4-5.1
		c-0.1-4.4,0-8.7,0-13.1c0-1.8,0.1-3.7,2.6-3.8c2.5,0,2.6,1.9,2.6,3.7C664.1,129.1,664.1,131.6,664,134.1
		C664.1,134.1,664,134.1,664,134.1z"/>
	<path class="st6" d="M498.2,134.1c0,2.6,0.2,5.2,0,7.8c-0.4,4.9-3.5,7.5-8.8,7.6c-6.7,0.1-10.2-2.1-10.5-7.4
		c-0.3-5.5-0.1-11-0.1-16.4c0-1.6,0.5-3,2.5-3c2.1,0,2.8,1.4,2.8,3.2c0,4.6,0.1,9.2,0,13.8c-0.1,3.2,1.2,5.1,4.5,5.1
		c3.4,0,4.5-2.1,4.5-5.2c0-4.5,0-9,0-13.5c0-1.9,0.5-3.6,2.9-3.5c2.3,0.1,2.3,1.9,2.4,3.5C498.3,128.9,498.2,131.5,498.2,134.1
		C498.2,134.1,498.2,134.1,498.2,134.1z"/>
	<path class="st6" d="M429.4,138.3c0.1-3.2-0.2-6.5,0.4-9.7c0.7-3.8,2.9-5.7,6.6-6c2.2-0.2,4.5-0.1,6.7,0.1c1.3,0.1,2.5,0.7,2.5,2.3
		c0,1.7-1.2,2-2.6,2.1c-1.6,0.1-3.3,0-4.9,0.2c-2.4,0.2-3.4,1.8-3.4,4.1c0,2.4,1.7,2.4,3.4,2.4c0.7,0,1.5,0,2.2,0.1
		c1.4,0.2,2.4,0.8,2.3,2.4c-0.1,1.4-1.1,1.9-2.3,1.9c-0.7,0-1.5,0.1-2.2,0.1c-2.3-0.1-3.5,0.6-3.5,3.2c0,2.6,1,3.6,3.6,3.6
		c1.7-0.1,3.5,0,5.2,0.2c1.2,0.1,2.1,0.8,2.1,2.2c0,1.4-1,2-2.2,2c-3.7,0.1-7.5,0.1-11.2,0c-2.1,0-2.7-1.5-2.7-3.3
		C429.3,143.6,429.4,141,429.4,138.3z"/>
	<path class="st6" d="M415.3,149.6c-1.6-0.6-5,1.3-5.2-2c-0.1-3.3,3.2-2.2,5.2-2.5c1-0.2,2-0.2,2.9-0.6c2.9-1.1,3.3-3.6,0.8-5.4
		c-1.5-1.1-3.4-1.6-5-2.5c-3.5-1.8-5.1-5.4-4.2-9.1c0.9-3.9,3.9-4.9,7.4-5c1.5,0,3,0,4.5,0.1c1.4,0.1,2.9,0.5,2.9,2.3
		c0,1.9-1.5,2.1-2.9,2.1c-1.2,0.1-2.5,0-3.7,0.1c-1.2,0-2.3,0.4-2.6,1.7c-0.4,1.2,0.2,2.3,1.2,2.9c1.1,0.8,2.4,1.3,3.6,1.9
		c4.8,2.3,6.8,5.5,6,9.6c-0.8,4-4.1,6.2-9.3,6.3C416.3,149.6,416,149.6,415.3,149.6z"/>
	<path class="st6" d="M545.5,134.8c0,3,0.2,6,0,9c-0.4,4.6-5.7,7.5-9.8,5.6c-0.9-0.4-1.3-1.1-1.3-2c0.1-1.2,0.7-2,1.8-2
		c4.1-0.2,4.3-2.9,4.2-6c-0.1-2.7-0.1-5.5,0-8.2c0.1-2.5-0.5-4.2-3.4-4c-1.4,0.1-3-0.1-2.9-2c0-2,1.6-2.2,3.2-2.4c0.1,0,0.2,0,0.4,0
		c7.6-0.6,8.1-0.2,8.1,7.4c0,1.6,0,3.2,0,4.9C545.5,134.8,545.5,134.8,545.5,134.8z"/>
	<path d="M246.3,123c3.4-2.6,7.3-3.3,11-4.6c4.8-1.7,9.7-3.2,14.5-4.9c2.5-0.9,3.2,0,2.8,2.5c-0.5,3-1.9,5.7-4.8,6.6
		C262.1,125.1,254.2,123.8,246.3,123z"/>
	<path class="st6" d="M601.1,136.3c0,3.4,0,6.7,0,10.1c0,1.6-0.3,3-2.4,3.1c-2.1,0.1-2.9-1.2-2.9-3c0-7,0-13.9,0-20.9
		c0-1.5,0.5-2.7,2.3-2.8c1.8,0,2.8,0.9,2.9,2.7C601,129.1,601,132.7,601.1,136.3C601,136.3,601.1,136.3,601.1,136.3z"/>
</g>
</svg>
